<svg width="1400" height="900" viewBox="0 0 1400 900" fill="none" xmlns="http://www.w3.org/2000/svg">
  <defs>
    <linearGradient id="panel" x1="220" y1="118" x2="1180" y2="782" gradientUnits="userSpaceOnUse">
      <stop stop-color="#FCFAF6"/>
      <stop offset="1" stop-color="#F4EFE8"/>
    </linearGradient>
    <linearGradient id="warm" x1="0" y1="0" x2="1" y2="1">
      <stop stop-color="#F4D5C0"/>
      <stop offset="1" stop-color="#D97B46"/>
    </linearGradient>
    <filter id="shadow" x="160" y="78" width="1080" height="744" filterUnits="userSpaceOnUse" color-interpolation-filters="sRGB">
      <feOffset dy="18"/>
      <feGaussianBlur stdDeviation="24"/>
      <feColorMatrix type="matrix" values="0 0 0 0 0.2 0 0 0 0 0.16 0 0 0 0 0.14 0 0 0 0.14 0"/>
    </filter>
  </defs>

  <rect width="1400" height="900" fill="#F7F4EE"/>
  <circle cx="1260" cy="170" r="120" fill="#EFE0D3"/>
  <circle cx="180" cy="710" r="120" fill="#EEE5D8"/>

  <g filter="url(#shadow)">
    <rect x="220" y="118" width="960" height="646" rx="34" fill="url(#panel)"/>
  </g>

  <rect x="220" y="118" width="960" height="646" rx="34" stroke="#E6DED5"/>
  <rect x="220" y="118" width="960" height="74" rx="34" fill="#FBF8F3"/>
  <circle cx="272" cy="156" r="8" fill="#E8C8B2"/>
  <circle cx="298" cy="156" r="8" fill="#E3D9CE"/>
  <circle cx="324" cy="156" r="8" fill="#E3D9CE"/>

  <rect x="260" y="236" width="540" height="474" rx="28" fill="#F7F7F5"/>
  <text x="298" y="278" font-family="Inter, Arial, sans-serif" font-size="18" font-weight="700" fill="#2F2B28">Main thread</text>

  <rect x="298" y="312" width="348" height="84" rx="22" fill="#FFFFFF" stroke="#ECE7DF"/>
  <rect x="400" y="430" width="360" height="150" rx="26" fill="#FDEEE0" stroke="#F0D5BF"/>
  <rect x="298" y="612" width="388" height="70" rx="20" fill="#FFFFFF" stroke="#ECE7DF"/>

  <text x="330" y="350" font-family="Inter, Arial, sans-serif" font-size="15" fill="#57514B">A valuable answer appears in the main thread.</text>
  <text x="432" y="472" font-family="Inter, Arial, sans-serif" font-size="17" font-weight="800" fill="#6D4124">This is the one you want to preserve.</text>
  <text x="432" y="506" font-family="Inter, Arial, sans-serif" font-size="15" fill="#7C5A44">It stays highlighted and easy to revisit.</text>
  <text x="330" y="651" font-family="Inter, Arial, sans-serif" font-size="15" fill="#57514B">The main context stays focused and readable.</text>

  <rect x="844" y="236" width="296" height="474" rx="28" fill="#FAFAF7" stroke="#ECE7DF"/>
  <text x="878" y="278" font-family="Inter, Arial, sans-serif" font-size="18" font-weight="700" fill="#2F2B28">Side panel</text>

  <rect x="878" y="320" width="228" height="72" rx="18" fill="#FFFFFF" stroke="#ECE7DF"/>
  <rect x="910" y="420" width="196" height="112" rx="22" fill="#FFF6EF" stroke="#E8D5C6"/>
  <rect x="878" y="564" width="228" height="84" rx="20" fill="#FFFFFF" stroke="#ECE7DF"/>

  <text x="902" y="363" font-family="Inter, Arial, sans-serif" font-size="15" fill="#57514B">What does this term mean?</text>
  <text x="934" y="456" font-family="Inter, Arial, sans-serif" font-size="16" font-weight="800" fill="#6D4124">A quick side question lives here.</text>
  <text x="934" y="488" font-family="Inter, Arial, sans-serif" font-size="14" fill="#7C5A44">Useful for tiny clarifications and small detours.</text>
  <text x="902" y="612" font-family="Inter, Arial, sans-serif" font-size="15" fill="#57514B">Merge it back only if it actually matters.</text>

  <path d="M790 505C824 505 836 505 844 505" stroke="#D5A07B" stroke-width="4" stroke-linecap="round" stroke-dasharray="10 10"/>
  <circle cx="816" cy="505" r="12" fill="url(#warm)"/>

  <rect x="286" y="88" width="160" height="34" rx="17" fill="#F7E8DF"/>
  <rect x="462" y="88" width="174" height="34" rx="17" fill="#EFE7DE"/>
  <rect x="652" y="88" width="192" height="34" rx="17" fill="#F7E8DF"/>
  <text x="366" y="109" text-anchor="middle" font-family="Inter, Arial, sans-serif" font-size="14" font-weight="700" fill="#8A5738">highlight</text>
  <text x="549" y="109" text-anchor="middle" font-family="Inter, Arial, sans-serif" font-size="14" font-weight="700" fill="#736A61">branch quietly</text>
  <text x="748" y="109" text-anchor="middle" font-family="Inter, Arial, sans-serif" font-size="14" font-weight="700" fill="#8A5738">merge back on purpose</text>

  <text x="220" y="56" font-family="Inter, Arial, sans-serif" font-size="34" font-weight="800" fill="#2E2A27">A small question does not need to derail the main answer.</text>
  <text x="220" y="792" font-family="Inter, Arial, sans-serif" font-size="22" fill="#8C5E40">LitQuestion keeps the main note clean while giving side questions a real place to live.</text>
</svg>
